<mxfile host="app.diagrams.net" modified="2024-04-08T12:21:18.343Z" agent="Mozilla/5.0 (Macintosh; Intel Mac OS X 10_15_7) AppleWebKit/537.36 (KHTML, like Gecko) Chrome/123.0.0.0 Safari/537.36" version="24.2.2" etag="5ozNtf50p8Vtn07mVG65" type="github">
  <diagram name="Page-1" id="Knf5u1d68Zvz8mMzH4Qn">
    <mxGraphModel>
      <root>
        <mxCell id="0" />
        <mxCell id="1" parent="0" />
      </root>
    </mxGraphModel>
  </diagram>
</mxfile>
